<?xml version="1.0" encoding="UTF-8"?>
<!DOCTYPE svg PUBLIC "-//W3C//DTD SVG 1.1//EN" "http://www.w3.org/Graphics/SVG/1.1/DTD/svg11.dtd">
<svg xmlns="http://www.w3.org/2000/svg" version="1.1" width="500px" height="200px" style="shape-rendering:geometricPrecision; text-rendering:geometricPrecision; image-rendering:optimizeQuality; fill-rule:evenodd; clip-rule:evenodd" xmlns:xlink="http://www.w3.org/1999/xlink">
<g><path style="opacity:1" fill="#fefefe" d="M -0.5,-0.5 C 166.167,-0.5 332.833,-0.5 499.5,-0.5C 499.5,66.1667 499.5,132.833 499.5,199.5C 332.833,199.5 166.167,199.5 -0.5,199.5C -0.5,132.833 -0.5,66.1667 -0.5,-0.5 Z"/></g>
<g><path style="opacity:1" fill="#187cb8" d="M 127.5,77.5 C 124.313,80.3619 121.646,80.0285 119.5,76.5C 124.061,72.3735 125.394,67.3735 123.5,61.5C 124.831,57.8752 126.164,54.2085 127.5,50.5C 125.711,49.1228 123.711,48.1228 121.5,47.5C 120.261,45.9928 120.595,44.8261 122.5,44C 132.274,40.6309 142.107,37.4642 152,34.5C 163.093,38.1428 174.26,41.4761 185.5,44.5C 185.5,45.5 185.5,46.5 185.5,47.5C 174.327,50.7523 163.161,54.0857 152,57.5C 146.366,56.0664 140.866,54.233 135.5,52C 141.421,49.4706 147.421,47.1372 153.5,45C 154.741,43.5135 154.241,42.6801 152,42.5C 145.278,44.4075 138.778,46.9075 132.5,50C 130.129,51.7432 128.795,54.0766 128.5,57C 130.131,64.0136 129.798,70.8469 127.5,77.5 Z"/></g>
<g><path style="opacity:1" fill="#19b6d9" d="M 388.5,52.5 C 396.5,52.5 404.5,52.5 412.5,52.5C 412.333,78.1688 412.5,103.835 413,129.5C 414.539,132.521 417.039,133.854 420.5,133.5C 420.5,135.5 420.5,137.5 420.5,139.5C 409.833,139.5 399.167,139.5 388.5,139.5C 388.5,137.5 388.5,135.5 388.5,133.5C 391.961,133.854 394.461,132.521 396,129.5C 396.667,107.167 396.667,84.8333 396,62.5C 394.195,59.9607 391.695,58.9607 388.5,59.5C 388.5,57.1667 388.5,54.8333 388.5,52.5 Z"/></g>
<g><path style="opacity:1" fill="#107ab7" d="M 171.5,55.5 C 173.388,57.9878 174.055,60.9878 173.5,64.5C 173.586,65.4959 173.252,66.3292 172.5,67C 166.173,70.7748 159.34,72.2748 152,71.5C 148.5,71.3333 145,71.1667 141.5,71C 138.163,70.3354 135.497,68.6687 133.5,66C 133.911,64.8558 134.244,63.6891 134.5,62.5C 132.784,60.0849 132.284,57.4182 133,54.5C 139.575,57.0253 146.241,59.3586 153,61.5C 159.019,58.9934 165.186,56.9934 171.5,55.5 Z"/></g>
<g><path style="opacity:1" fill="#92c4df" d="M 171.5,55.5 C 172.209,54.596 173.209,54.2627 174.5,54.5C 174.813,58.0419 174.479,61.3752 173.5,64.5C 174.055,60.9878 173.388,57.9878 171.5,55.5 Z"/></g>
<g><path style="opacity:1" fill="#1ab6d9" d="M 305.5,64.5 C 308.833,64.5 312.167,64.5 315.5,64.5C 315.5,69.1667 315.5,73.8333 315.5,78.5C 319.5,78.5 323.5,78.5 327.5,78.5C 327.5,80.8333 327.5,83.1667 327.5,85.5C 323.5,85.5 319.5,85.5 315.5,85.5C 315.333,99.504 315.5,113.504 316,127.5C 316.465,128.931 317.299,130.097 318.5,131C 321.868,131.543 325.201,131.376 328.5,130.5C 328.663,132.857 328.497,135.19 328,137.5C 320.565,141.161 313.065,141.328 305.5,138C 302.894,136.062 301.061,133.562 300,130.5C 299.5,115.504 299.333,100.504 299.5,85.5C 296.833,85.5 294.167,85.5 291.5,85.5C 291.261,83.5328 291.594,81.6995 292.5,80C 301.164,78.5216 305.497,73.3549 305.5,64.5 Z"/></g>
<g><path style="opacity:1" fill="#1fb6d9" d="M 46.5,134.5 C 46.2172,133.711 45.7172,133.044 45,132.5C 44.1782,140.012 44.3448,147.345 45.5,154.5C 47.0727,158.459 50.0727,160.125 54.5,159.5C 54.5,161.5 54.5,163.5 54.5,165.5C 43.495,165.667 32.495,165.5 21.5,165C 20.5939,163.301 20.2606,161.467 20.5,159.5C 23.505,159.747 26.005,158.747 28,156.5C 28.6667,133.167 28.6667,109.833 28,86.5C 26.5557,84.8446 24.7224,84.178 22.5,84.5C 22.5,82.5 22.5,80.5 22.5,78.5C 29.1667,78.5 35.8333,78.5 42.5,78.5C 42.4207,81.2706 42.9207,83.9373 44,86.5C 50.4238,77.0091 58.9238,74.8424 69.5,80C 75.1985,85.231 78.3652,91.731 79,99.5C 79.7231,107.542 79.3897,115.542 78,123.5C 73.7007,138.566 64.2007,143.4 49.5,138C 48.2899,136.961 47.2899,135.794 46.5,134.5 Z"/></g>
<g><path style="opacity:1" fill="#16b6d9" d="M 286.5,133.5 C 286.5,135.167 286.5,136.833 286.5,138.5C 280.167,138.5 273.833,138.5 267.5,138.5C 267.122,135.978 266.289,133.645 265,131.5C 256.945,142.217 247.945,143.217 238,134.5C 232.404,124.352 233.57,115.186 241.5,107C 248.831,103.875 256.497,102.708 264.5,103.5C 264.666,98.4889 264.499,93.4889 264,88.5C 261.862,83.3005 258.529,82.3005 254,85.5C 252.684,88.6883 252.184,92.0217 252.5,95.5C 249.482,95.6646 246.482,95.498 243.5,95C 237.271,90.8292 236.938,86.1626 242.5,81C 247.232,78.0613 252.399,76.8947 258,77.5C 268.812,75.5657 276.145,79.5657 280,89.5C 280.333,102.5 280.667,115.5 281,128.5C 281.309,129.766 281.809,130.933 282.5,132C 284.058,132.21 285.391,132.71 286.5,133.5 Z"/></g>
<g><path style="opacity:1" fill="#1ab6d9" d="M 382.5,109.5 C 371.833,109.5 361.167,109.5 350.5,109.5C 350.205,111.735 350.539,113.735 351.5,115.5C 352.063,129.267 358.73,134.101 371.5,130C 374.04,127.795 376.207,125.295 378,122.5C 381.548,127.348 381.048,131.848 376.5,136C 354.869,145.799 341.036,139.299 335,116.5C 333.284,105.903 334.951,95.9034 340,86.5C 352.319,73.5509 364.986,73.2176 378,85.5C 382.072,92.9323 383.572,100.932 382.5,109.5 Z"/></g>
<g><path style="opacity:1" fill="#18b6d9" d="M 119.5,76.5 C 121.646,80.0285 124.313,80.3619 127.5,77.5C 135.066,81.361 136.399,86.861 131.5,94C 128.464,96.0063 125.131,96.8396 121.5,96.5C 121.846,93.3979 121.179,90.5645 119.5,88C 116.975,87.1041 114.808,87.6041 113,89.5C 111.601,92.3634 110.601,95.3634 110,98.5C 109.333,109.167 109.333,119.833 110,130.5C 112.196,133.125 115.03,134.125 118.5,133.5C 118.5,135.167 118.5,136.833 118.5,138.5C 107.5,138.5 96.5,138.5 85.5,138.5C 85.5,136.5 85.5,134.5 85.5,132.5C 89.7572,133.403 92.2572,131.736 93,127.5C 93.6667,114.167 93.6667,100.833 93,87.5C 91.1516,84.9586 88.6516,83.9586 85.5,84.5C 85.5,82.5 85.5,80.5 85.5,78.5C 92.5316,78.1697 99.5316,78.503 106.5,79.5C 107.018,82.3157 107.851,84.9824 109,87.5C 111.328,82.6727 114.828,79.006 119.5,76.5 Z"/></g>
<g><path style="opacity:1" fill="#06b4d8" d="M 168.5,133.5 C 168.5,135.167 168.5,136.833 168.5,138.5C 158.167,138.5 147.833,138.5 137.5,138.5C 137.5,136.5 137.5,134.5 137.5,132.5C 141.757,133.403 144.257,131.736 145,127.5C 145.667,114.5 145.667,101.5 145,88.5C 143.682,85.0586 141.182,83.7253 137.5,84.5C 137.5,82.5 137.5,80.5 137.5,78.5C 145.167,78.5 152.833,78.5 160.5,78.5C 160.333,94.8367 160.5,111.17 161,127.5C 161.899,131.57 164.399,133.57 168.5,133.5 Z"/></g>
<g><path style="opacity:1" fill="#18b6d9" d="M 171.5,78.5 C 181.5,78.5 191.5,78.5 201.5,78.5C 201.5,80.5 201.5,82.5 201.5,84.5C 199.473,84.3379 197.473,84.5045 195.5,85C 194.919,85.8926 194.585,86.8926 194.5,88C 198.204,100.778 201.704,113.612 205,126.5C 208.5,113.833 212,101.167 215.5,88.5C 214.864,85.2061 212.864,83.8728 209.5,84.5C 209.5,82.5 209.5,80.5 209.5,78.5C 216.5,78.5 223.5,78.5 230.5,78.5C 230.5,80.5 230.5,82.5 230.5,84.5C 227.675,84.0807 225.509,85.0807 224,87.5C 218.519,104.761 213.352,122.094 208.5,139.5C 203.57,139.803 198.737,139.469 194,138.5C 188.798,122.561 183.798,106.561 179,90.5C 178.075,86.3986 175.575,84.3986 171.5,84.5C 171.5,82.5 171.5,80.5 171.5,78.5 Z"/></g>
<g><path style="opacity:1" fill="#19b6d9" d="M 421.5,78.5 C 431.167,78.5 440.833,78.5 450.5,78.5C 450.5,80.5 450.5,82.5 450.5,84.5C 446.901,83.9376 444.901,85.4376 444.5,89C 447.615,100.341 451.115,111.508 455,122.5C 458.145,111.569 460.978,100.569 463.5,89.5C 463.923,85.0916 461.923,83.4249 457.5,84.5C 457.5,82.5 457.5,80.5 457.5,78.5C 464.833,78.5 472.167,78.5 479.5,78.5C 479.5,80.5 479.5,82.5 479.5,84.5C 478.127,84.3433 476.793,84.51 475.5,85C 473.623,87.2513 472.123,89.7513 471,92.5C 465.822,109.547 460.488,126.547 455,143.5C 453.088,149.254 450.421,154.588 447,159.5C 440.243,164.056 432.743,165.722 424.5,164.5C 424.5,162.5 424.5,160.5 424.5,158.5C 436.849,158.154 443.849,151.821 445.5,139.5C 440.304,123.078 434.804,106.745 429,90.5C 428.075,86.3986 425.575,84.3986 421.5,84.5C 421.5,82.5 421.5,80.5 421.5,78.5 Z"/></g>
<g><path style="opacity:1" fill="#fbfdfe" d="M 356.5,84.5 C 359.97,83.8748 362.804,84.8748 365,87.5C 366.893,92.3082 367.727,97.3082 367.5,102.5C 362.167,102.5 356.833,102.5 351.5,102.5C 350.437,95.6423 352.104,89.6423 356.5,84.5 Z"/></g>
<g><path style="opacity:1" fill="#fafdfe" d="M 51.5,85.5 C 54.9705,84.8748 57.8038,85.8748 60,88.5C 64.2939,101.022 64.6272,113.689 61,126.5C 58.6318,132.577 54.6318,133.911 49,130.5C 44.2281,118.53 43.2281,106.197 46,93.5C 47.129,90.2064 48.9624,87.5397 51.5,85.5 Z"/></g>
<g><path style="opacity:1" fill="#f9fdfe" d="M 260.5,109.5 C 261.833,109.5 263.167,109.5 264.5,109.5C 264.5,113.5 264.5,117.5 264.5,121.5C 264.49,127.214 261.823,130.88 256.5,132.5C 254.399,132.368 252.899,131.368 252,129.5C 249.338,122.772 250.172,116.605 254.5,111C 256.345,109.872 258.345,109.372 260.5,109.5 Z"/></g>
<g><path style="opacity:1" fill="#77d6e9" d="M 260.5,109.5 C 261.919,108.549 263.585,108.216 265.5,108.5C 265.818,113.032 265.485,117.366 264.5,121.5C 264.5,117.5 264.5,113.5 264.5,109.5C 263.167,109.5 261.833,109.5 260.5,109.5 Z"/></g>
<g><path style="opacity:1" fill="#bfecf4" d="M 382.5,109.5 C 372.347,110.494 362.014,110.828 351.5,110.5C 351.5,112.167 351.5,113.833 351.5,115.5C 350.539,113.735 350.205,111.735 350.5,109.5C 361.167,109.5 371.833,109.5 382.5,109.5 Z"/></g>
<g><path style="opacity:1" fill="#87dbec" d="M 118.5,133.5 C 119.461,135.265 119.795,137.265 119.5,139.5C 107.988,139.828 96.6544,139.495 85.5,138.5C 96.5,138.5 107.5,138.5 118.5,138.5C 118.5,136.833 118.5,135.167 118.5,133.5 Z"/></g>
<g><path style="opacity:1" fill="#81d9eb" d="M 168.5,133.5 C 169.461,135.265 169.795,137.265 169.5,139.5C 158.654,139.828 147.987,139.494 137.5,138.5C 147.833,138.5 158.167,138.5 168.5,138.5C 168.5,136.833 168.5,135.167 168.5,133.5 Z"/></g>
<g><path style="opacity:1" fill="#8cdcec" d="M 286.5,133.5 C 287.461,135.265 287.795,137.265 287.5,139.5C 280.646,139.824 273.979,139.491 267.5,138.5C 273.833,138.5 280.167,138.5 286.5,138.5C 286.5,136.833 286.5,135.167 286.5,133.5 Z"/></g>
<g><path style="opacity:1" fill="#c0ecf5" d="M 46.5,134.5 C 45.5093,140.979 45.176,147.646 45.5,154.5C 44.3448,147.345 44.1782,140.012 45,132.5C 45.7172,133.044 46.2172,133.711 46.5,134.5 Z"/></g>
</svg>
